# xmcd CD database file
#
# Track frame offsets:
#	150
#	15244
#	27094
#	41969
#	52976
#	66756
#	78645
#	91845
#	106545
#	116931
#	129898
#	141199
#	154082
#	166307
#	180384
#	193386
#	207579
#	221202
#	235292
#	248201
#
# Disc length: 3495 seconds
#
# Revision: 0
# Processed by: cddbd v1.5.2PL0 Copyright (c) Steve Scherf et al.
# Submitted via: CDex 1.70beta2
#
DISCID=160da514
DTITLE=Fred Astaire - The Essential Collection Disc1
DYEAR=1952
DGENRE=Jazz
TTITLE0=Cheek to Cheek
TTITLE1=Top Hat White Tie and Tails
TTITLE2=Isn't it a Lovely Day
TTITLE3=Facinating Rhythm
TTITLE4=My One and Only
TTITLE5=Puttin' On the Ritz
TTITLE6=Crazy Feet
TTITLE7=Night and Day
TTITLE8=Were In the Money
TTITLE9=Flying Down to Rio
TTITLE10=Lets Face the Music and Dance
TTITLE11=I'm Putting  all My Eggs In One Basket
TTITLE12=Let Youself Go
TTITLE13=I'm Building Up to an Awful Letdown
TTITLE14=A Fine Romance
TTITLE15=The Way You Look Tonight
TTITLE16=Pick Yourself Up
TTITLE17=Bojangles of Harlem
TTITLE18=They All Laughed
TTITLE19=They Can't Take That Away From Me
EXTD=YEAR: 1952
EXTT0=
EXTT1=
EXTT2=
EXTT3=
EXTT4=
EXTT5=
EXTT6=
EXTT7=
EXTT8=
EXTT9=
EXTT10=
EXTT11=
EXTT12=
EXTT13=
EXTT14=
EXTT15=
EXTT16=
EXTT17=
EXTT18=
EXTT19=
PLAYORDER=
